<mxfile host="app.diagrams.net" agent="Mozilla/5.0 (Windows NT 10.0; Win64; x64) AppleWebKit/537.36 (KHTML, like Gecko) Chrome/131.0.0.0 Safari/537.36" version="26.0.5">
  <diagram name="第 1 页" id="f1nWCCuWI_6rAyLzlvaS">
    <mxGraphModel dx="1969" dy="908" grid="1" gridSize="10" guides="1" tooltips="1" connect="1" arrows="1" fold="1" page="1" pageScale="1" pageWidth="827" pageHeight="1169" math="0" shadow="0">
      <root>
        <mxCell id="0" />
        <mxCell id="1" parent="0" />
        <mxCell id="RpQ-3ubnt-UxJicJJvZT-3" value="" style="edgeStyle=orthogonalEdgeStyle;rounded=0;orthogonalLoop=1;jettySize=auto;html=1;" edge="1" parent="1" source="RpQ-3ubnt-UxJicJJvZT-1" target="RpQ-3ubnt-UxJicJJvZT-2">
          <mxGeometry relative="1" as="geometry" />
        </mxCell>
        <mxCell id="RpQ-3ubnt-UxJicJJvZT-1" value="&lt;div class=&quot;lake-content&quot;&gt;&lt;span style=&quot;color: var(--md-editor-text-color-active)&quot; class=&quot;ne-text&quot;&gt;ModelRepositoryManager&lt;/span&gt;&lt;/div&gt;" style="rounded=0;whiteSpace=wrap;html=1;" vertex="1" parent="1">
          <mxGeometry x="40" y="80" width="170" height="40" as="geometry" />
        </mxCell>
        <mxCell id="RpQ-3ubnt-UxJicJJvZT-5" value="" style="edgeStyle=orthogonalEdgeStyle;rounded=0;orthogonalLoop=1;jettySize=auto;html=1;" edge="1" parent="1" source="RpQ-3ubnt-UxJicJJvZT-2" target="RpQ-3ubnt-UxJicJJvZT-4">
          <mxGeometry relative="1" as="geometry" />
        </mxCell>
        <mxCell id="RpQ-3ubnt-UxJicJJvZT-2" value="&lt;div class=&quot;lake-content&quot;&gt;&lt;span style=&quot;color: var(--md-editor-text-color-active)&quot; class=&quot;ne-text&quot;&gt;Create&lt;/span&gt;&lt;/div&gt;" style="rounded=0;whiteSpace=wrap;html=1;" vertex="1" parent="1">
          <mxGeometry x="250" y="80" width="170" height="40" as="geometry" />
        </mxCell>
        <mxCell id="RpQ-3ubnt-UxJicJJvZT-7" value="" style="edgeStyle=orthogonalEdgeStyle;rounded=0;orthogonalLoop=1;jettySize=auto;html=1;" edge="1" parent="1" source="RpQ-3ubnt-UxJicJJvZT-4" target="RpQ-3ubnt-UxJicJJvZT-6">
          <mxGeometry relative="1" as="geometry" />
        </mxCell>
        <mxCell id="RpQ-3ubnt-UxJicJJvZT-11" value="" style="edgeStyle=orthogonalEdgeStyle;rounded=0;orthogonalLoop=1;jettySize=auto;html=1;" edge="1" parent="1" source="RpQ-3ubnt-UxJicJJvZT-4" target="RpQ-3ubnt-UxJicJJvZT-10">
          <mxGeometry relative="1" as="geometry" />
        </mxCell>
        <mxCell id="RpQ-3ubnt-UxJicJJvZT-4" value="&lt;div class=&quot;lake-content&quot;&gt;&lt;span style=&quot;color: var(--md-editor-text-color-active)&quot; class=&quot;ne-text&quot;&gt;ModelLifeCycle&lt;/span&gt;&lt;/div&gt;" style="rounded=0;whiteSpace=wrap;html=1;" vertex="1" parent="1">
          <mxGeometry x="450" y="80" width="170" height="40" as="geometry" />
        </mxCell>
        <mxCell id="RpQ-3ubnt-UxJicJJvZT-6" value="&lt;div class=&quot;lake-content&quot;&gt;Create&lt;/div&gt;" style="rounded=0;whiteSpace=wrap;html=1;" vertex="1" parent="1">
          <mxGeometry x="650" y="80" width="170" height="40" as="geometry" />
        </mxCell>
        <mxCell id="RpQ-3ubnt-UxJicJJvZT-15" value="" style="edgeStyle=orthogonalEdgeStyle;rounded=0;orthogonalLoop=1;jettySize=auto;html=1;" edge="1" parent="1" source="RpQ-3ubnt-UxJicJJvZT-9" target="RpQ-3ubnt-UxJicJJvZT-14">
          <mxGeometry relative="1" as="geometry" />
        </mxCell>
        <mxCell id="RpQ-3ubnt-UxJicJJvZT-9" value="&lt;div class=&quot;lake-content&quot;&gt;&lt;div class=&quot;lake-content&quot;&gt;&lt;span class=&quot;ne-text&quot;&gt;&lt;span style=&quot;background-color: transparent; color: light-dark(rgb(0, 0, 0), rgb(255, 255, 255));&quot;&gt;ModelRepositoryManager::&lt;/span&gt;PollAndUpdateInternal&lt;/span&gt;&lt;/div&gt;&lt;/div&gt;" style="rounded=0;whiteSpace=wrap;html=1;" vertex="1" parent="1">
          <mxGeometry x="370" y="360" width="330" height="40" as="geometry" />
        </mxCell>
        <mxCell id="RpQ-3ubnt-UxJicJJvZT-12" value="" style="edgeStyle=orthogonalEdgeStyle;rounded=0;orthogonalLoop=1;jettySize=auto;html=1;" edge="1" parent="1" source="RpQ-3ubnt-UxJicJJvZT-10" target="RpQ-3ubnt-UxJicJJvZT-9">
          <mxGeometry relative="1" as="geometry" />
        </mxCell>
        <mxCell id="RpQ-3ubnt-UxJicJJvZT-10" value="&lt;div class=&quot;lake-content&quot;&gt;&lt;div class=&quot;lake-content&quot;&gt;// Not setting the smart pointer directly to simplify clean up&lt;/div&gt;&lt;div class=&quot;lake-content&quot;&gt;std::unique_ptr&amp;lt;ModelRepositoryManager&amp;gt; local_manager(&lt;span style=&quot;background-color: transparent; color: light-dark(rgb(0, 0, 0), rgb(255, 255, 255));&quot;&gt;new ModelRepositoryManager(&lt;/span&gt;&lt;span style=&quot;background-color: transparent; color: light-dark(rgb(0, 0, 0), rgb(255, 255, 255));&quot;&gt;repository_paths, !strict_model_config, model_config_name,&lt;/span&gt;&lt;/div&gt;&lt;div class=&quot;lake-content&quot;&gt;polling_enabled, model_control_enabled,&lt;/div&gt;&lt;div class=&quot;lake-content&quot;&gt;life_cycle_options.min_compute_capability, enable_model_namespacing,&lt;span style=&quot;background-color: transparent; color: light-dark(rgb(0, 0, 0), rgb(255, 255, 255));&quot;&gt;std::move(life_cycle)));&lt;/span&gt;&lt;/div&gt;&lt;div class=&quot;lake-content&quot;&gt;*model_repository_manager = std::move(local_manager);&lt;/div&gt;&lt;/div&gt;" style="rounded=0;whiteSpace=wrap;html=1;align=left;" vertex="1" parent="1">
          <mxGeometry x="370" y="170" width="330" height="140" as="geometry" />
        </mxCell>
        <mxCell id="RpQ-3ubnt-UxJicJJvZT-17" value="" style="edgeStyle=orthogonalEdgeStyle;rounded=0;orthogonalLoop=1;jettySize=auto;html=1;" edge="1" parent="1" source="RpQ-3ubnt-UxJicJJvZT-14" target="RpQ-3ubnt-UxJicJJvZT-16">
          <mxGeometry relative="1" as="geometry" />
        </mxCell>
        <mxCell id="RpQ-3ubnt-UxJicJJvZT-14" value="&lt;div class=&quot;lake-content&quot;&gt;&lt;div class=&quot;lake-content&quot;&gt;&lt;span class=&quot;ne-text&quot;&gt;&lt;span style=&quot;background-color: transparent; color: light-dark(rgb(0, 0, 0), rgb(255, 255, 255));&quot;&gt;ModelRepositoryManager::&lt;/span&gt;Poll&lt;/span&gt;&lt;/div&gt;&lt;/div&gt;" style="rounded=0;whiteSpace=wrap;html=1;" vertex="1" parent="1">
          <mxGeometry x="740" y="360" width="330" height="40" as="geometry" />
        </mxCell>
        <mxCell id="RpQ-3ubnt-UxJicJJvZT-16" value="&lt;div class=&quot;lake-content&quot;&gt;&lt;div class=&quot;lake-content&quot;&gt;&lt;span class=&quot;ne-text&quot;&gt;&lt;span style=&quot;background-color: transparent; color: light-dark(rgb(0, 0, 0), rgb(255, 255, 255));&quot;&gt;ModelRepositoryManager::&lt;/span&gt;InitializeModelInfo&lt;/span&gt;&lt;/div&gt;&lt;/div&gt;" style="rounded=0;whiteSpace=wrap;html=1;" vertex="1" parent="1">
          <mxGeometry x="1130" y="360" width="330" height="40" as="geometry" />
        </mxCell>
      </root>
    </mxGraphModel>
  </diagram>
</mxfile>
